<svg id="Capa_1" enable-background="new 0 0 512 512" height="512" viewBox="0 0 512 512" width="512" xmlns="http://www.w3.org/2000/svg"><g><g><path d="m491.396 99.928h-242.092c-11.379 0-20.604 9.225-20.604 20.604v370.865c0 11.379 9.225 20.604 20.604 20.604h242.093c11.379 0 20.604-9.225 20.604-20.604v-370.866c-.001-11.379-9.226-20.603-20.605-20.603z" fill="#ff8a98"/></g><g><path d="m438.857 99.928h-189.553c-11.379 0-20.604 9.225-20.604 20.604v370.865c0 11.379 9.225 20.604 20.604 20.604h189.553z" fill="#fd5c6f"/></g><g><path d="m377.046 49.964h-242.092c-11.379 0-20.604 9.225-20.604 20.604v370.865c0 11.379 9.225 20.604 20.604 20.604h242.093c11.379 0 20.604-9.225 20.604-20.604v-370.866c-.001-11.379-9.226-20.603-20.605-20.603z" fill="#f4e74d"/></g><g><path d="m324.507 49.964h-189.553c-11.379 0-20.604 9.225-20.604 20.604v370.865c0 11.379 9.225 20.604 20.604 20.604h189.553z" fill="#eedb00"/></g><g><path d="m262.696 0h-242.092c-11.379 0-20.604 9.225-20.604 20.604v370.865c0 11.379 9.225 20.604 20.604 20.604h242.093c11.379 0 20.604-9.225 20.604-20.604v-370.865c-.001-11.379-9.226-20.604-20.605-20.604z" fill="#b18cd9"/></g><g><path d="m283.3 370.865c-133.704 0-242.092-108.388-242.092-242.092v-128.773h-20.604c-11.379 0-20.604 9.225-20.604 20.604v370.865c0 11.379 9.225 20.604 20.604 20.604h242.093c11.379 0 20.604-9.225 20.604-20.604z" fill="#996acc"/></g><g><g><path d="m96.746 131.016h89.808v197.191c0 3.112-1.292 6.084-3.566 8.207l-33.678 31.433c-4.313 4.026-11.006 4.026-15.319 0l-33.678-31.433c-2.275-2.123-3.566-5.095-3.566-8.207v-197.191z" fill="#fff"/></g><g><path d="m141.65 220.824v150.041c-2.752 0-5.503-1.006-7.66-3.019l-33.678-31.433c-2.275-2.123-3.566-5.095-3.566-8.207v-152.286-44.904h44.904 44.904v44.904c-24.8 0-44.904 20.104-44.904 44.904z" fill="#efe6e6"/></g><g><path d="m96.746 63.659h89.808v44.904h-89.808z" fill="#6b7d8e" transform="matrix(0 -1 1 0 55.539 227.761)"/></g><g><path d="m164.102 86.111v44.904h-44.904v-89.808h22.452v22.452c0 12.4 10.052 22.452 22.452 22.452z" fill="#546370"/></g><g><path d="m85.52 108.563h112.26c6.2 0 11.226 5.026 11.226 11.226v22.452c0 6.2-5.026 11.226-11.226 11.226h-112.26c-6.2 0-11.226-5.026-11.226-11.226v-22.451c0-6.2 5.026-11.227 11.226-11.227z" fill="#f4e74d"/></g><g><path d="m119.198 119.79v22.452c0 6.2 5.026 11.226 11.226 11.226h-44.904c-6.2 0-11.226-5.026-11.226-11.226v-22.452c0-6.2 5.026-11.226 11.226-11.226h44.904c-6.2-.001-11.226 5.025-11.226 11.226z" fill="#eedb00"/></g><g><path d="m175.328 48.707h-67.356c-4.142 0-7.5-3.358-7.5-7.5s3.358-7.5 7.5-7.5h67.356c4.142 0 7.5 3.358 7.5 7.5s-3.358 7.5-7.5 7.5z" fill="#f4e74d"/></g></g></g></svg>